<?xml version="1.0" encoding="UTF-8"?>
<svg version="1.1" viewBox="0 0 120 26" xmlns="http://www.w3.org/2000/svg">
<g fill="none" fill-rule="evenodd">
<g transform="translate(-660 -40)" fill-rule="nonzero">
<g transform="translate(660 40)">
<polygon points="46.049 0.73592 49.018 0.73592 51.937 14.375 51.988 14.375 55.595 0.73592 57.634 0.73592 61.23 14.375 61.281 14.375 64.211 0.73592 67.18 0.73592 62.54 19.923 60.183 19.923 56.64 6.0849 56.588 6.0849 53.028 19.923 50.688 19.923" fill="#000"/>
<path d="m71.233 14.132c0 1.0975 0.30615 1.9313 0.91846 2.5012 0.56994 0.57996 1.3182 0.86993 2.2447 0.86993 1.0783 0 2.0433-0.44363 2.8952-1.3309l1.9259 1.6994c-1.3501 1.4872-2.9387 2.2235-4.7656 2.2089-0.6919 7.758e-4 -1.3798-0.10562-2.0391-0.31539-0.33855-0.1184-0.66318-0.27335-0.96813-0.46212-0.33177-0.16818-0.64208-0.3757-0.92423-0.61808-0.55993-0.50833-1.0143-1.2188-1.3632-2.1315-0.3851-0.87802-0.57765-2.0187-0.57765-3.422 0-1.3501 0.16559-2.4731 0.49677-3.3688 0.33041-0.91268 0.75402-1.632 1.2708-2.1581 0.49532-0.51416 1.1009-0.90918 1.7711-1.1553 0.61088-0.23072 1.2579-0.3512 1.9109-0.35583 1.5119 0.016944 2.7904 0.53028 3.8356 1.54 1.0621 1.0267 1.6012 2.4396 1.6174 4.2388v2.2609l-8.2488-0.0011553zm5.5939-2.2609c-0.034659-1.0675-0.31154-1.8743-0.83065-2.4203-0.51218-0.51988-1.1668-0.77982-1.964-0.77982s-1.4518 0.25994-1.964 0.77982c-0.50294 0.54607-0.77982 1.3528-0.83065 2.4203h5.5893z" fill="#000"/>
<path d="m90.62 18.496c-0.87725 1.0213-2.0191 1.5492-3.4254 1.5839-0.79869-0.016944-1.4822-0.18793-2.0506-0.51295-0.58431-0.30867-1.0932-0.74261-1.4903-1.2708-0.36507-0.42977-0.60691-1.0136-0.72552-1.7514-0.14403-0.70242-0.21642-1.8612-0.21719-3.4763 0-1.6413 0.072398-2.8093 0.21719-3.504 0.11784-0.70088 0.35968-1.267 0.72552-1.6983 0.74709-1.1437 1.9274-1.7372 3.541-1.7803 0.65328-0.0057124 1.2988 0.1423 1.8843 0.43208 0.5619 0.32542 1.0798 0.72144 1.5412 1.1784v-6.9606h2.6572v19.187h-2.6572v-1.4268zm-2.6133-9.6686c-0.62925 0-1.1098 0.11014-1.4418 0.33041-0.36264 0.23452-0.64326 0.57611-0.80293 0.97738-0.16625 0.43268-0.2735 0.88577-0.31886 1.3471-0.050833 0.51911-0.07626 1.0513-0.07626 1.5966-6.11e-4 0.50737 0.024839 1.0144 0.07626 1.5192 0.041444 0.4788 0.14874 0.94959 0.31886 1.3991 0.16937 0.39545 0.44788 0.73447 0.80293 0.97738 0.33195 0.24723 0.81255 0.37046 1.4418 0.3697 0.62925-7.738e-4 1.1264-0.13286 1.4915-0.39627 0.35495-0.24162 0.61952-0.59438 0.75209-1.0028 0.17814-0.44417 0.29475-0.9106 0.34659-1.3863 0.017329-0.50255 0.025416-0.9947 0.025416-1.4799 0-0.52835-0.0084721-1.0344-0.025416-1.5181-0.054997-0.46246-0.17156-0.91549-0.34659-1.3471-0.13257-0.40841-0.39714-0.76117-0.75209-1.0028-0.36584-0.25493-0.863-0.38279-1.4915-0.38356z" fill="#000"/>
<polygon points="96.779 17.187 99.436 17.187 99.436 19.923 96.779 19.923" fill="#000"/>
<path d="m103.5 6.2628h2.6572v15.357c-0.016174 1.1491-0.37239 2.066-1.0686 2.7507-0.71243 0.70088-1.6417 1.0606-2.7877 1.079h-1.0398v-2.5751h0.74747c0.97738 0 1.4749-0.4833 1.4926-1.4499l-0.001156-15.162zm0-5.5269h2.6572v2.7357h-2.6572v-2.7357z" fill="#000"/>
<path d="m110.5 15.751c1.0783 1.1668 2.4754 1.7506 4.1914 1.7514 0.77019 0 1.3964-0.15404 1.8785-0.46212 0.46148-0.26313 0.74141-0.75822 0.72899-1.2893 0-0.49061-0.1448-0.83296-0.43439-1.0271-0.29806-0.20218-0.69317-0.31077-1.1876-0.32926l-2.3499-0.21026c-1.1152-0.10475-2.0221-0.48984-2.7207-1.1553-0.71474-0.64927-1.0806-1.5577-1.0975-2.7253 0.016174-1.4041 0.49639-2.4565 1.4406-3.1574 0.91807-0.70242 2.0834-1.0536 3.4959-1.0536 0.5506-0.0059024 1.1008 0.032733 1.6451 0.11553 0.46516 0.081807 0.92214 0.20475 1.3656 0.36738 0.80422 0.33581 1.5462 0.80446 2.1951 1.3863l-1.6474 1.9859c-0.50113-0.37564-1.0438-0.69235-1.6174-0.94387-0.6203-0.23179-1.2788-0.34428-1.9409-0.33157-0.83566 0-1.4191 0.15404-1.7503 0.46212-0.34429 0.29606-0.53694 0.73142-0.5245 1.1853-0.016945 0.30808 0.11514 0.57765 0.39626 0.8087 0.2557 0.25416 0.70704 0.41667 1.354 0.48753l2.1951 0.17098c1.3794 0.10475 2.3757 0.53528 2.9887 1.2916 0.57071 0.73862 0.85607 1.674 0.85607 2.8062-0.017714 1.3263-0.54068 2.3499-1.5689 3.0708-1.0205 0.73708-2.3252 1.1145-3.9141 1.1322-2.1565 0-4.099-0.81525-5.8273-2.4457l1.8496-1.8912z" fill="#000"/>
<g fill="#000">
<polygon points="0.086647 0.099355 7.6515 0.099355 14.071 12.727 10.251 20.479"/>
<path d="m30.447 20.501c5.6397 0 10.212-4.5719 10.212-10.212 0-5.6397-4.5719-10.212-10.212-10.212h-10.177l10.177 20.423z"/>
</g>
<polygon points="18.289 16.402 18.59 17.005 22.269 13.934" fill="#F5C34A"/>
<polygon points="17.842 15.506 18.133 16.091 22.096 13.635" fill="#F5C34A"/>
<polygon points="16.391 12.596 16.751 13.318 21.849 12.631" fill="#F5C34A"/>
<polygon points="16.915 13.645 17.232 14.284 21.884 12.976" fill="#F5C34A"/>
<polygon points="17.391 14.601 17.687 15.196 21.966 13.312" fill="#F5C34A"/>
<polygon points="19.791 19.413 20.243 20.32 23.013 14.653" fill="#F5C34A"/>
<polygon points="18.748 17.324 19.074 17.976 22.483 14.208" fill="#F5C34A"/>
<polygon points="19.24 18.31 19.613 19.058 22.733 14.448" fill="#F5C34A"/>
<polygon points="16.009 0.095889 13.677 0.095889 22.883 10.54" fill="#F5C34A"/>
<polygon points="10.552 0.89073 12.441 4.6778 22.381 11.017" fill="#F5C34A"/>
<polygon points="22.16 8.8091 17.728 0.095889 16.424 0.095889" fill="#F5C34A"/>
<polygon points="22.616 10.76 13.215 0.095889 10.158 0.095889" fill="#F5C34A"/>
<polygon points="12.743 5.2808 13.853 7.5082 22.186 11.303" fill="#F5C34A"/>
<polygon points="15.053 9.9147 15.599 11.009 21.924 11.943" fill="#F5C34A"/>
<polygon points="14.099 8.0004 14.842 9.4919 22.033 11.614" fill="#F5C34A"/>
<polygon points="15.788 11.387 16.218 12.248 21.862 12.284" fill="#F5C34A"/>
</g>
</g>
</g>
</svg>
